<?xml version="1.0" encoding="UTF-8" standalone="no"?>
<svg version="1.1" xmlns="http://www.w3.org/2000/svg" xmlns:xlink="http://www.w3.org/1999/xlink" viewBox="0 0 800 800">
<defs>
<pattern id="noise" x="0" y="0" width="100" height="100" patternUnits="userSpaceOnUse">
<rect width="100" height="100" fill="#f5f5f0"/>
<circle cx="10" cy="15" r="0.3" fill="#000" opacity="0.15"/>
<circle cx="25" cy="8" r="0.4" fill="#000" opacity="0.12"/>
<circle cx="45" cy="22" r="0.3" fill="#000" opacity="0.18"/>
<circle cx="60" cy="35" r="0.35" fill="#000" opacity="0.14"/>
<circle cx="80" cy="18" r="0.3" fill="#000" opacity="0.16"/>
<circle cx="15" cy="45" r="0.4" fill="#000" opacity="0.13"/>
<circle cx="35" cy="55" r="0.3" fill="#000" opacity="0.17"/>
<circle cx="70" cy="60" r="0.35" fill="#000" opacity="0.15"/>
<circle cx="90" cy="48" r="0.3" fill="#000" opacity="0.14"/>
<circle cx="20" cy="75" r="0.4" fill="#000" opacity="0.16"/>
<circle cx="50" cy="85" r="0.3" fill="#000" opacity="0.13"/>
<circle cx="75" cy="90" r="0.35" fill="#000" opacity="0.15"/>
</pattern>
<pattern id="darkNoise" x="0" y="0" width="100" height="100" patternUnits="userSpaceOnUse">
<rect width="100" height="100" fill="#d0d0c8"/>
<circle cx="5" cy="8" r="0.5" fill="#000" opacity="0.35"/>
<circle cx="12" cy="18" r="0.6" fill="#000" opacity="0.32"/>
<circle cx="22" cy="5" r="0.4" fill="#000" opacity="0.38"/>
<circle cx="28" cy="10" r="0.55" fill="#000" opacity="0.30"/>
<circle cx="35" cy="15" r="0.5" fill="#000" opacity="0.36"/>
<circle cx="42" cy="22" r="0.45" fill="#000" opacity="0.33"/>
<circle cx="48" cy="25" r="0.6" fill="#000" opacity="0.37"/>
<circle cx="55" cy="12" r="0.5" fill="#000" opacity="0.31"/>
<circle cx="65" cy="38" r="0.55" fill="#000" opacity="0.34"/>
<circle cx="72" cy="8" r="0.5" fill="#000" opacity="0.36"/>
<circle cx="82" cy="20" r="0.6" fill="#000" opacity="0.33"/>
<circle cx="88" cy="15" r="0.45" fill="#000" opacity="0.35"/>
<circle cx="95" cy="28" r="0.5" fill="#000" opacity="0.32"/>
<circle cx="8" cy="35" r="0.55" fill="#000" opacity="0.34"/>
<circle cx="18" cy="48" r="0.6" fill="#000" opacity="0.31"/>
<circle cx="25" cy="42" r="0.5" fill="#000" opacity="0.37"/>
<circle cx="32" cy="52" r="0.45" fill="#000" opacity="0.33"/>
<circle cx="38" cy="58" r="0.6" fill="#000" opacity="0.36"/>
<circle cx="45" cy="45" r="0.5" fill="#000" opacity="0.32"/>
<circle cx="52" cy="38" r="0.55" fill="#000" opacity="0.35"/>
<circle cx="58" cy="55" r="0.5" fill="#000" opacity="0.34"/>
<circle cx="68" cy="48" r="0.6" fill="#000" opacity="0.31"/>
<circle cx="72" cy="63" r="0.55" fill="#000" opacity="0.36"/>
<circle cx="78" cy="52" r="0.5" fill="#000" opacity="0.33"/>
<circle cx="85" cy="45" r="0.45" fill="#000" opacity="0.35"/>
<circle cx="92" cy="50" r="0.6" fill="#000" opacity="0.32"/>
<circle cx="95" cy="58" r="0.5" fill="#000" opacity="0.34"/>
<circle cx="10" cy="68" r="0.55" fill="#000" opacity="0.36"/>
<circle cx="15" cy="75" r="0.5" fill="#000" opacity="0.33"/>
<circle cx="22" cy="78" r="0.6" fill="#000" opacity="0.35"/>
<circle cx="28" cy="85" r="0.45" fill="#000" opacity="0.32"/>
<circle cx="35" cy="72" r="0.55" fill="#000" opacity="0.37"/>
<circle cx="42" cy="82" r="0.5" fill="#000" opacity="0.34"/>
<circle cx="48" cy="68" r="0.6" fill="#000" opacity="0.31"/>
<circle cx="52" cy="88" r="0.5" fill="#000" opacity="0.36"/>
<circle cx="58" cy="78" r="0.55" fill="#000" opacity="0.33"/>
<circle cx="65" cy="85" r="0.5" fill="#000" opacity="0.35"/>
<circle cx="72" cy="75" r="0.6" fill="#000" opacity="0.32"/>
<circle cx="78" cy="92" r="0.55" fill="#000" opacity="0.34"/>
<circle cx="85" cy="82" r="0.5" fill="#000" opacity="0.36"/>
<circle cx="92" cy="88" r="0.45" fill="#000" opacity="0.33"/>
<circle cx="95" cy="75" r="0.5" fill="#000" opacity="0.35"/>
</pattern>
</defs>
<g id="newspaper-board">
<g id="Light" fill="url(#noise)">
<rect width="800" height="800"/>
</g>
<g id="Frame" fill="none" stroke="#333" stroke-width="2">
<rect width="800" height="800"/>
</g>
<g id="Dark" fill="url(#darkNoise)">
<g id="raz">
<g id="dva">
<g id="tri">
<rect x="100" width="100" height="100"/>
<rect x="300" width="100" height="100"/>
<rect x="500" width="100" height="100"/>
<rect x="700" width="100" height="100"/>
</g>
<use transform="translate(-100,100)" xlink:href="#tri"/>
</g>
<use transform="translate(0,200)" xlink:href="#dva"/>
</g>
<use transform="translate(0,400)" xlink:href="#raz"/>
</g>
</g>
</svg>
